A Dangerous Method (2011) 1080p MKV x264 AC3+DTS MultiSubs
.
[IMG]http://img209.imageshack.us/img209/642/72096240.png[/IMG]
.
Verenigd Koninkrijk / Duitsland / Canada / Zwitserland
Drama / Thriller
99 minuten

geregisseerd door David Cronenberg
met Michael Fassbender, Viggo Mortensen en Keira Knightley

De Eerste Wereldoorlog staat op het punt uit te breken. Psychiater Carl Jung (Michael Fassbender), zijn mentor Sigmund Freud (Viggo Mortensen) en Sabina Spielrein (Keira Knightley) bevinden zich in een gespannen driehoeksverhouding. PatiÙnt Otto Gross (Vincent Cassel), die behandeld wordt voor zijn immorele seksuele gedrag, brengt de spanningen tot eenDit alles met grote gevolgen voor de moderne manier van denken van de mens.

Vanaf 15 maart in de bioscoop
. 
http://www.moviemeter.nl/film/71183
.
PLOT
.
A look at how the intense relationship between Carl Jung and Sigmund Freud gives birth to psychoanalysis. 
. 
http://www.imdb.com/title/tt1571222/
.
INFO
.
Source: x264-KALIBER
Subs: Dutch, English, Romanian, Polish, Italian
.
Format                           : Matroska
Format version                   : Version 2
File size                        : 13.0 GiB
Duration                         : 1h 39mn
Overall bit rate                 : 18.7 Mbps
Encoded date                     : UTC 2012-01-29 16:06:47
Writing application              : mkvmerge v5.2.0 ('I can't explain') built on Dec 18 2011 18:12:03
Writing library                  : libebml v1.2.3 + libmatroska v1.3.0

Video
ID                               : 1
Format                           : AVC
Format/Info                      : Advanced Video Codec
Format profile                   : High@L4.1
Format settings, CABAC           : Yes
Format settings, ReFrames        : 4 frames
Codec ID                         : V_MPEG4/ISO/AVC
Duration                         : 1h 39mn
Bit rate                         : 16.6 Mbps
Width                            : 1 920 pixels
Height                           : 1 040 pixels
Display aspect ratio             : 16:9
Frame rate                       : 24.000 fps
Color space                      : YUV
Chroma subsampling               : 4:2:0
Bit depth                        : 8 bits
Scan type                        : Progressive
Bits/(Pixel*Frame)               : 0.346
Stream size                      : 11.2 GiB (87%)
Title                            : A Dangerous Method - Kaliber
Writing library                  : x264 core 112
Encoding settings                : cabac=1 / ref=4 / deblock=1:-3:-3 / analyse=0x3:0x113 / me=umh / subme=7 / psy=1 / psy_rd=1.00:0.00 / mixed_ref=1 / me_range=32 / chroma_me=1 / trellis=1 / 8x8dct=1 / cqm=0 / deadzone=21,11 / fast_pskip=1 / chroma_qp_offset=-2 / threads=12 / sliced_threads=0 / nr=0 / decimate=1 / interlaced=0 / constrained_intra=0 / bframes=3 / b_pyramid=2 / b_adapt=2 / b_bias=0 / direct=1 / weightb=1 / open_gop=0 / weightp=2 / keyint=240 / keyint_min=24 / scenecut=40 / intra_refresh=0 / rc_lookahead=50 / rc=2pass / mbtree=1 / bitrate=16561 / ratetol=1.0 / qcomp=0.60 / qpmin=3 / qpmax=51 / qpstep=4 / cplxblur=20.0 / qblur=0.5 / ip_ratio=1.40 / aq=1:1.00
Language                         : English
Default                          : Yes
Forced                           : No
Color primaries                  : BT.709-5, BT.1361, IEC 61966-2-4, SMPTE RP177
Transfer characteristics         : BT.709-5, BT.1361
Matrix coefficients              : BT.709-5, BT.1361, IEC 61966-2-4 709, SMPTE RP177

Audio #1
ID                               : 2
Format                           : DTS
Format/Info                      : Digital Theater Systems
Codec ID                         : A_DTS
Duration                         : 1h 39mn
Bit rate mode                    : Constant
Bit rate                         : 1 510 Kbps
Channel(s)                       : 6 channels
Channel positions                : Front: L C R, Side: L R, LFE
Sampling rate                    : 48.0 KHz
Bit depth                        : 16 bits
Compression mode                 : Lossy
Stream size                      : 1.05 GiB (8%)
Title                            : DTS
Language                         : English
Default                          : No
Forced                           : No

Audio #2
ID                               : 3
Format                           : AC-3
Format/Info                      : Audio Coding 3
Mode extension                   : CM (complete main)
Codec ID                         : A_AC3
Duration                         : 1h 39mn
Bit rate mode                    : Constant
Bit rate                         : 640 Kbps
Channel(s)                       : 6 channels
Channel positions                : Front: L C R, Side: L R, LFE
Sampling rate                    : 48.0 KHz
Bit depth                        : 16 bits
Compression mode                 : Lossy
Stream size                      : 454 MiB (3%)
Title                            : AC3
Language                         : English
Default                          : Yes
Forced                           : No

Text #1
ID                               : 4
Format                           : UTF-8
Codec ID                         : S_TEXT/UTF8
Codec ID/Info                    : UTF-8 Plain Text
Language                         : Dutch
Default                          : Yes
Forced                           : No

Text #2
ID                               : 5
Format                           : UTF-8
Codec ID                         : S_TEXT/UTF8
Codec ID/Info                    : UTF-8 Plain Text
Language                         : English
Default                          : No
Forced                           : No

Text #3
ID                               : 6
Format                           : UTF-8
Codec ID                         : S_TEXT/UTF8
Codec ID/Info                    : UTF-8 Plain Text
Language                         : Romanian
Default                          : No
Forced                           : No

Text #4
ID                               : 7
Format                           : UTF-8
Codec ID                         : S_TEXT/UTF8
Codec ID/Info                    : UTF-8 Plain Text
Language                         : Polish
Default                          : No
Forced                           : No

Text #5
ID                               : 8
Format                           : PGS
Muxing mode                      : zlib
Codec ID                         : S_HDMV/PGS
Codec ID/Info                    : The same subtitle format used on BDs/HD-DVDs
Language                         : Italian
Default                          : No
Forced                           : No

.
NL Vertaling SRT-TEAM
.
Enjoy
